<?xml version="1.0" encoding="utf-8"?>
<!-- Generator: Adobe Illustrator 21.0.0, SVG Export Plug-In . SVG Version: 6.00 Build 0)  -->
<svg version="1.1" id="Capa_1" xmlns="http://www.w3.org/2000/svg" xmlns:xlink="http://www.w3.org/1999/xlink" x="0px" y="0px"
	 viewBox="0 0 570 570" style="enable-background:new 0 0 570 570;" xml:space="preserve">
<style type="text/css">
	.st0{fill:#F399CF;}
</style>
<g>
	<path class="st0" d="M199.1,333.7c3.5-2.1,4.7-6.6,2.7-10.1s-6.6-4.7-10.1-2.7c-3.5,2.1-4.7,6.6-2.7,10.1
		C191.1,334.5,195.5,335.8,199.1,333.7z"/>
	<path class="st0" d="M168.8,384.7l37.2,64.4c8,13.9,26.1,19.1,40.3,10.8c14.2-8.2,19-26.1,10.8-40.3L235,381.3l19.2-11.1
		c3.5-2.1,4.7-6.6,2.7-10.1l-9.6-16.7c1.1-0.2,8.7-1.7,141.5-27.7c16.4-0.9,26.3-18.8,18-33.2l-24.6-42.5l15.6-23.8
		c1.6-2.4,1.7-5.3,0.3-7.7L383.2,183c-1.4-2.4-4.1-3.8-6.8-3.7L348,181l-27.2-47.4c-3.9-6.8-11-11-18.9-11.1c-0.1,0-0.2,0-0.3,0
		c-7.6,0-14.6,3.8-18.6,10.2l-96.5,123l-62.7,36.2c-24.7,14.3-33.2,45.9-18.9,70.6C117.9,385.2,145.4,394.1,168.8,384.7z M244.4,427
		c4.1,7.1,1.7,16.1-5.4,20.2s-16.1,1.6-20.2-5.4l-36.9-64l25.6-14.8C250.2,437.1,243.7,425.8,244.4,427z M227.7,368.5l-7.4-12.7
		l12.7-7.4l7.4,12.7L227.7,368.5z M372.7,194.2l10.2,17.7l-9.1,13.8l-17.6-30.5L372.7,194.2z M295.4,140.9c2-3.3,5.1-3.5,6.4-3.5
		s4.3,0.4,6.3,3.7L394,289.9c2.8,4.9-0.5,10.9-6.3,11.1c-1,0-1.5,0.2-4,0.7l-90.9-157.4C294.7,141.8,294.9,141.5,295.4,140.9z
		 M282.9,156.7l85.4,147.9l-128.9,25.2l-39.2-67.9L282.9,156.7z M117.7,355.2c-3.3-5.6-5-12-5-18.4c0-13.1,7.1-25.5,18.4-32
		l57.6-33.2l36.9,64l-57.6,33.2C150.4,378.8,127.8,372.8,117.7,355.2z"/>
	<path class="st0" d="M176.1,338.4c-2.1-3.5-6.6-4.7-10.1-2.7l-12.7,7.4c-3.5,2.1-8,0.8-10.1-2.7s-6.6-4.7-10.1-2.7
		c-3.5,2.1-4.7,6.6-2.7,10.1c6,10.5,19.7,14.3,30.3,8.1l12.7-7.4C177,346.4,178.2,342,176.1,338.4z"/>
	<path class="st0" d="M465,138.4l-41.2,22.9c-3.5,2-4.9,6.6-2.9,10.1s6.6,4.9,10.1,2.9l41.2-22.9c3.5-2,4.9-6.6,2.9-10.1
		C473.1,137.7,468.6,136.4,465,138.4z"/>
	<path class="st0" d="M460.8,214.9l-28.5-7.6c-3.9-1-8,1.3-9.1,5.2c-1,3.9,1.3,8,5.2,9.1l28.5,7.6c4,1,8-1.3,9.1-5.2
		C467,220,464.7,216,460.8,214.9z"/>
	<path class="st0" d="M389,111.6l-7.6,28.5c-1,3.9,1.3,8,5.2,9.1c3.9,1,8-1.3,9.1-5.2l7.6-28.5c1-3.9-1.3-8-5.2-9.1
		C394.2,105.3,390.1,107.7,389,111.6z"/>
</g>
</svg>
