<?xml version="1.0" encoding="utf-8"?>
<!-- Generator: Adobe Illustrator 21.0.0, SVG Export Plug-In . SVG Version: 6.00 Build 0)  -->
<svg version="1.1" id="Capa_1" xmlns="http://www.w3.org/2000/svg" xmlns:xlink="http://www.w3.org/1999/xlink" x="0px" y="0px"
	 viewBox="0 0 570 570" style="enable-background:new 0 0 570 570;" xml:space="preserve">
<style type="text/css">
	.st0{fill:#F399CF;}
</style>
<g>
	<g>
		<g>
			<path class="st0" d="M209,227.9h1.7l-0.6,1.3c-1.7,4.5-2.1,9.3-1.1,13.9v19.5c0,7.9,3.2,15.6,8.8,21.2c2.2,2.2,3.7,5.1,4.3,8.2
				c3,13.5,9,26.1,17.3,37.1v9.6c-7.2-1.3-14.5,1.5-19,7.4l-12,16.1c-0.2,0.4-0.4,0.6-0.5,1l-36.2,21.7
				c-14.6,8.8-23.6,24.7-23.6,41.8v29.6c0,4.2,3.4,7.6,7.6,7.6h258.8c4.2,0,7.6-3.4,7.6-7.6v-29.7c-0.1-17.1-9-33-23.7-41.8
				l-36.1-21.7c-0.2-0.4-0.3-0.7-0.5-1l-12-16.1c-4.4-5.9-11.8-8.7-19-7.3v-9.6c8.3-11,14.2-23.6,17.3-37.1c0.6-3.1,2.1-5.9,4.3-8.1
				c5.7-5.6,8.8-13.2,8.8-21.2v-19.5c1-4.6,0.6-9.3-1-13.7l-0.7-1.5h1.7c12.6,0,22.8-10.3,22.8-22.8s-10.3-22.8-22.8-22.8h-0.1
				c0.2-30.7-22.5-56.6-52.9-60.7v-2.2c0.2-7.1-5.5-13.1-12.7-13.3H275c-7.1,0.2-12.8,6.2-12.7,13.3v2.2
				c-30.4,4.1-53.1,30-53.2,60.6H209c-12.6,0-22.8,10.3-22.8,22.8S196.4,227.9,209,227.9z M232.7,355.2c1.2-1.6,3.2-2.1,5-1.3
				l35.2,15.6l-15.3,18.5c-0.7,0.9-1.7,1.4-2.9,1.5c-1.1,0.1-2.2-0.3-3-1l-26.7-22.9L232.7,355.2z M285.1,378.5l12.5,15l-8.3,9.5
				H281l-8.3-9.5L285.1,378.5z M163.3,448.7v-22c0-11.8,6.2-22.8,16.3-28.7l35.1-21.1l27,23.1c3.5,3,7.9,4.6,12.6,4.6
				c0.5,0,1.1,0,1.7-0.1c1.8-0.2,3.5-0.6,5.1-1.2l7.4,8.5l-18.2,36.9H163.3z M267.3,448.7l15-30.4h5.7l15,30.4H267.3z M355.5,376.9
				l35.1,21.1c10.2,6.1,16.3,17,16.3,28.8v21.9h-87l-18.1-36.8l7.4-8.5c1.6,0.6,3.4,1.1,5.1,1.2c0.5,0.1,1.1,0.1,1.7,0.1
				c4.6,0,9.1-1.7,12.6-4.7L355.5,376.9z M332.6,353.8c1.8-0.8,3.8-0.3,5,1.3l7.8,10.3l-26.8,22.9c-0.9,0.7-2,1.1-3,1
				c-1.1-0.1-2.1-0.6-2.9-1.5l-15.3-18.5L332.6,353.8z M346.2,241.1c-0.1,0.4-0.1,0.9-0.1,1.3v20c0,3.9-1.6,7.7-4.4,10.4
				c-4.3,4.4-7.2,9.9-8.5,15.9c-2.8,11.5-7.9,22.3-15.1,31.8c-1.6,2.3-2.5,5.1-2.5,7.9v16.3l-30.5,13.6l-30.4-13.6v-16.3
				c0-2.9-0.9-5.6-2.6-7.9c-7.1-9.4-12.3-20.1-15-31.6c-1.2-6.1-4.1-11.6-8.5-15.9c-2.8-2.8-4.4-6.5-4.4-10.4v-20
				c0-0.4,0-0.9-0.1-1.3c-0.4-1.8-0.4-3.6-0.3-5.4l1-2.2c0.6-1.2,2.1-3.7,3.5-5.7h113.7c1.2,2,2.8,4.3,3.3,5.4l1.1,2.4
				C346.6,237.5,346.5,239.3,346.2,241.1z M262.3,136.9v22.4c0,4.2,3.4,7.6,7.6,7.6c4.2,0,7.6-3.4,7.6-7.6v-38h15.3v38.1
				c0,4.2,3.4,7.6,7.6,7.6c4.2,0,7.6-3.4,7.6-7.6v-22.5c21.9,3.9,37.8,23,38,45.2H224.3C224.5,160,240.4,141,262.3,136.9z
				 M209,197.4h152.3c4.2,0,7.6,3.4,7.6,7.6s-3.4,7.6-7.6,7.6H209c-4.2,0-7.6-3.4-7.6-7.6S204.8,197.4,209,197.4z"/>
		</g>
	</g>
</g>
</svg>
