<?xml version="1.0" encoding="utf-8"?>
<!-- Generator: Adobe Illustrator 21.0.0, SVG Export Plug-In . SVG Version: 6.00 Build 0)  -->
<svg version="1.1" id="Capa_1" xmlns="http://www.w3.org/2000/svg" xmlns:xlink="http://www.w3.org/1999/xlink" x="0px" y="0px"
	 viewBox="0 0 570 570" style="enable-background:new 0 0 570 570;" xml:space="preserve">
<style type="text/css">
	.st0{fill:#FFFFFF;}
</style>
<g>
	<g>
		<g>
			<path class="st0" d="M199.7,148.5h1.9l-0.7,1.5c-1.9,5-2.3,10.4-1.2,15.6v21.8c0,8.9,3.6,17.5,9.9,23.8c2.5,2.5,4.2,5.7,4.8,9.2
				c3.4,15.1,10.1,29.2,19.4,41.6v10.8c-8.1-1.5-16.3,1.7-21.3,8.3l-13.5,18c-0.2,0.4-0.4,0.7-0.6,1.1l-40.6,24.3
				c-16.4,9.9-26.5,27.7-26.5,46.9v33.2c0,4.7,3.8,8.5,8.5,8.5h290.1c4.7,0,8.5-3.8,8.5-8.5v-33.3c-0.1-19.2-10.1-37-26.6-46.9
				l-40.5-24.3c-0.2-0.4-0.3-0.8-0.6-1.1l-13.5-18c-4.9-6.6-13.2-9.8-21.3-8.2V262c9.3-12.3,15.9-26.5,19.4-41.6
				c0.7-3.5,2.3-6.6,4.8-9.1c6.4-6.3,9.9-14.8,9.9-23.8v-21.8c1.1-5.1,0.7-10.4-1.1-15.4l-0.8-1.7h1.9c14.1,0,25.6-11.5,25.6-25.6
				S384.1,97.4,370,97.4h-0.1c0.2-34.4-25.2-63.4-59.3-68v-2.5c0.2-8-6.2-14.7-14.2-14.9h-22.8c-8,0.2-14.4,6.9-14.2,14.9v2.5
				C225.3,34,199.9,63,199.8,97.3h-0.1c-14.1,0-25.6,11.5-25.6,25.6S185.5,148.5,199.7,148.5z M226.2,291.2c1.3-1.8,3.6-2.4,5.6-1.5
				l39.4,17.5L254,327.9c-0.8,1-1.9,1.6-3.2,1.7c-1.2,0.1-2.5-0.3-3.4-1.1l-29.9-25.7L226.2,291.2z M285,317.4l14,16.8l-9.3,10.6
				h-9.3l-9.3-10.6L285,317.4z M148.5,396v-24.7c0-13.2,6.9-25.5,18.3-32.2l39.3-23.6l30.3,25.9c3.9,3.4,8.9,5.2,14.1,5.2
				c0.6,0,1.2,0,1.9-0.1c2-0.2,3.9-0.7,5.7-1.4l8.3,9.5L246,396H148.5z M265,396l16.8-34.1h6.4L305,396H265z M363.9,315.5l39.3,23.6
				c11.4,6.8,18.3,19,18.3,32.3V396H324l-20.3-41.3l8.3-9.5c1.8,0.7,3.8,1.2,5.7,1.4c0.6,0.1,1.2,0.1,1.9,0.1
				c5.2,0,10.2-1.9,14.1-5.3L363.9,315.5z M338.2,289.7c2-0.9,4.3-0.3,5.6,1.5l8.7,11.6l-30,25.7c-1,0.8-2.2,1.2-3.4,1.1
				c-1.2-0.1-2.4-0.7-3.2-1.7l-17.2-20.7L338.2,289.7z M353.4,163.4c-0.1,0.5-0.1,1-0.1,1.5v22.4c0,4.4-1.8,8.6-4.9,11.7
				c-4.8,4.9-8.1,11.1-9.5,17.8c-3.1,12.9-8.8,25-16.9,35.6c-1.8,2.6-2.8,5.7-2.8,8.8v18.3L285,294.7l-34.1-15.2v-18.3
				c0-3.2-1-6.3-2.9-8.9c-8-10.5-13.8-22.5-16.8-35.4c-1.3-6.8-4.6-13-9.5-17.8c-3.1-3.1-4.9-7.3-4.9-11.7V165c0-0.5,0-1-0.1-1.5
				c-0.4-2-0.5-4-0.3-6.1l1.1-2.5c0.7-1.4,2.4-4.1,3.9-6.4h127.4c1.4,2.2,3.1,4.8,3.7,6l1.2,2.7
				C353.9,159.3,353.8,161.3,353.4,163.4z M259.4,46.6v25.1c0,4.7,3.8,8.5,8.5,8.5s8.5-3.8,8.5-8.5V29.1h17.1v42.7
				c0,4.7,3.8,8.5,8.5,8.5s8.5-3.8,8.5-8.5V46.6c24.5,4.4,42.4,25.8,42.6,50.7H216.8C217,72.4,234.9,51.1,259.4,46.6z M199.7,114.4
				h170.7c4.7,0,8.5,3.8,8.5,8.5s-3.8,8.5-8.5,8.5H199.7c-4.7,0-8.5-3.8-8.5-8.5S195,114.4,199.7,114.4z"/>
		</g>
		<path class="st0" d="M285,375c-46.9,0-85,38.1-85,85s38.1,85,85,85s85-38.1,85-85S331.9,375,285,375z M328.9,470.3h-34.1V504
			h-19.6v-33.7h-34.1v-20.4h34.1V416h19.6v33.9h34.1V470.3z"/>
	</g>
</g>
</svg>
