<?xml version="1.0" encoding="utf-8"?>
<!-- Generator: Adobe Illustrator 21.0.0, SVG Export Plug-In . SVG Version: 6.00 Build 0)  -->
<svg version="1.1" id="Capa_1" xmlns="http://www.w3.org/2000/svg" xmlns:xlink="http://www.w3.org/1999/xlink" x="0px" y="0px"
	 viewBox="0 0 570 570" style="enable-background:new 0 0 570 570;" xml:space="preserve">
<style type="text/css">
	.st0{fill:#F399CF;}
</style>
<g>
	<path class="st0" d="M394.7,378.5h-4v-87.1c7.4-3.5,12.2-10.9,12.2-19.1v-27.8c0-9-7.2-16.2-16.2-16.2H331
		c7.2-20.2,0.4-42.8-16.9-55.6c-17.2-12.8-40.8-12.8-58.1,0c-17.2,12.8-24.1,35.4-16.9,55.6h-55.6c-9,0-16.2,7.2-16.2,16.2v27.8
		c0,8.2,4.8,15.7,12.2,19.1v87.1h-4c-6.7,0-12.2,5.5-12.2,12.2v8.1c0,4.5,3.6,8.1,8.1,8.1h227.4c4.5,0,8.1-3.6,8.1-8.1v-8.1
		C406.9,384,401.4,378.5,394.7,378.5z M285.1,171.4c21,0.1,38.5,16,40.4,37c-2,0.4-3.9,1.1-5.7,2c-3.9,2.1-8.7,2.1-12.6,0
		c-2-1.1-4.2-1.8-6.4-2.2c-1.7-7.3-8.3-12.5-15.7-12.5c-7.5,0-14,5.2-15.7,12.5c-2.3,0.4-4.4,1.1-6.4,2.2c-3.9,2.1-8.7,2.1-12.6,0
		c-1.8-1-3.7-1.6-5.7-2C246.6,187.4,264.1,171.4,285.1,171.4z M285.1,228.3c7.2,0,13.5-4.8,15.6-11.8c1,0.3,2,0.7,3,1.2
		c6.2,3.3,13.7,3.3,19.8,0c0.7-0.4,1.3-0.6,2-0.9c-2.4,20.4-19.7,35.8-40.3,35.8s-37.9-15.4-40.3-35.8c0.7,0.2,1.2,0.5,2,0.9
		c6.2,3.3,13.7,3.3,19.8,0c1-0.5,1.9-0.9,3-1.2C271.5,223.4,277.8,228.2,285.1,228.3z M276.9,212c0-4.5,3.6-8.1,8.1-8.1
		c4.5,0,8.1,3.6,8.1,8.1c0,4.5-3.6,8.1-8.1,8.1C280.6,220.1,276.9,216.5,276.9,212z M175.4,244.5c0-4.5,3.6-8.1,8.1-8.1h59.4
		c3.7,6.5,9,12.1,15.3,16.2h-82.8V244.5z M175.4,272.2v-11.5H350c2.3,0,4-1.8,4-4c0-2.3-1.8-4-4-4h-38.1c6.2-4.2,11.5-9.7,15.3-16.2
		h59.4c4.5,0,8.1,3.6,8.1,8.1v8.1h-28.4c-2.3,0-4,1.8-4,4c0,2.3,1.8,4,4,4h28.4v11.5c0.1,6.4-4.6,11.9-11,12.8
		c-3.4,0.4-6.8-0.8-9.4-3.1c-2.6-2.3-4-5.6-4-9c0-2.3-1.8-4-4-4c-2.3,0-4,1.8-4,4c0,6.7-5.5,12.2-12.2,12.2
		c-6.7,0-12.2-5.5-12.2-12.2c0-2.3-1.8-4-4-4c-2.3,0-4,1.8-4,4c0,6.7-5.5,12.2-12.2,12.2s-12.2-5.5-12.2-12.2c0-2.3-1.8-4-4-4
		c-2.3,0-4,1.8-4,4c0,6.7-5.5,12.2-12.2,12.2S273,279.7,273,273c0-2.3-1.8-4-4-4c-2.3,0-4,1.8-4,4c0,6.7-5.5,12.2-12.2,12.2
		s-12.2-5.5-12.2-12.2c0-2.3-1.8-4-4-4c-2.2,0-4,1.8-4,4c0,6.7-5.5,12.2-12.2,12.2c-6.7,0-12.2-5.5-12.2-12.2c0-2.3-1.8-4-4-4
		c-2.3,0-4,1.8-4,4c0,3.4-1.4,6.7-4,9s-5.9,3.4-9.4,3.1C180,284.2,175.3,278.7,175.4,272.2z M362.2,301.4h-48.7
		c-4.5,0-8.1,3.6-8.1,8.1v69.1H187.6v-85.5c6.4,0.1,12.4-2.9,16.2-8c3.8,5.1,9.9,8.1,16.2,8.1c6.4,0,12.4-3,16.2-8.1
		c3.8,5.1,9.9,8.1,16.2,8.1s12.4-3,16.2-8.1c3.8,5.1,9.9,8.1,16.2,8.1c6.4,0,12.4-3,16.2-8.1c3.8,5.1,9.9,8.1,16.2,8.1
		c6.4,0,12.4-3,16.2-8.1c3.8,5.1,9.9,8.1,16.2,8.1c6.4,0,12.4-3,16.2-8.1c3.8,5.1,9.9,8.1,16.2,8v85.4h-12.2v-69.1
		C370.3,305,366.7,301.4,362.2,301.4z M362.2,309.4v69.1h-48.7v-69.1H362.2z M171.4,398.8v-8.1c0-2.3,1.8-4,4-4h219.3
		c2.3,0,4,1.8,4,4v8.1H171.4z"/>
	<path class="st0" d="M281,301.4h-73.1c-4.5,0-8.1,3.6-8.1,8.1v52.8c0,4.5,3.6,8.1,8.1,8.1H281c4.5,0,8.1-3.6,8.1-8.1v-52.8
		C289.1,305,285.5,301.4,281,301.4z M238.5,362.3l27.4-25.4c1.1-1,1.5-2.5,1.2-3.9c-0.3-1.4-1.4-2.6-2.7-3c-1.4-0.4-2.9-0.1-4,0.9
		l-33.8,31.4h-18.7v-2.3l15-13.9c1.7-1.5,1.7-4.1,0.2-5.8c-1.5-1.7-4.1-1.7-5.8-0.2l-9.4,8.7v-39.4h42.4l-20.9,19.4
		c-1.1,1-1.5,2.5-1.2,3.9c0.3,1.4,1.4,2.6,2.8,3c1.4,0.4,2.9,0.1,4-0.9l27.3-25.3H281v2.3l-7.4,6.9c-1.7,1.5-1.7,4.1-0.2,5.8
		c1.5,1.7,4.1,1.7,5.8,0.2l1.9-1.8v39.4L238.5,362.3L238.5,362.3z"/>
	<path class="st0" d="M329.7,350.1H346c4.5,0,8.1-3.6,8.1-8.1v-16.2c0-4.5-3.6-8.1-8.1-8.1h-16.2c-4.5,0-8.1,3.6-8.1,8.1v16.2
		C321.6,346.4,325.2,350.1,329.7,350.1z M329.7,325.7H346v16.2h-16.2V325.7z"/>
	<path class="st0" d="M325.6,366.3h4c2.3,0,4-1.8,4-4c0-2.3-1.8-4-4-4h-4c-2.3,0-4,1.8-4,4C321.6,364.5,323.4,366.3,325.6,366.3z"/>
	<path class="st0" d="M260.7,199.8c1.1,0,2.1-0.4,2.9-1.2l4-4c1.1-1,1.5-2.6,1.1-3.9c-0.4-1.4-1.5-2.6-2.9-2.9
		c-1.4-0.4-2.9,0.1-3.9,1.1l-4,4c-1.2,1.2-1.5,2.9-0.9,4.4C257.5,198.8,259,199.8,260.7,199.8z"/>
	<path class="st0" d="M281,187.6h8.1c2.3,0,4-1.8,4-4c0-2.3-1.8-4-4-4H281c-2.3,0-4,1.8-4,4C276.9,185.8,278.8,187.6,281,187.6z"/>
	<path class="st0" d="M306.6,198.6c1.6,1.5,4.1,1.5,5.7-0.1c1.5-1.5,1.6-4.1,0.1-5.7l-4-4c-1.6-1.5-4.1-1.5-5.7,0.1
		c-1.5,1.5-1.6,4.1-0.1,5.7L306.6,198.6z"/>
</g>
</svg>
