<?xml version="1.0" encoding="utf-8"?>
<!-- Generator: Adobe Illustrator 21.0.0, SVG Export Plug-In . SVG Version: 6.00 Build 0)  -->
<svg version="1.1" id="Capa_1" xmlns="http://www.w3.org/2000/svg" xmlns:xlink="http://www.w3.org/1999/xlink" x="0px" y="0px"
	 viewBox="0 0 570 570" style="enable-background:new 0 0 570 570;" xml:space="preserve">
<style type="text/css">
	.st0{fill:#FFC0A8;}
</style>
<path class="st0" d="M350.8,317.7c-0.3-0.3-0.6-0.6-0.9-0.7l-17.9-9c-1.7-0.9-3.8-0.5-5.2,0.9l-8.8,8.7c0-0.1-0.1-0.1-0.1-0.2
	c-2.5-6.9-4.1-14-5.1-21.2c5.4-5.2,9.6-11.4,12.7-18.2c1.7-3.7,3.2-7.6,4.3-11.5c6-1.4,18.1-6.9,18.1-26.7c0.4-5.1-1-10.2-3.8-14.5
	c2.5-8.1,7.8-27.8,3.4-36.6c-3.1-5.1-7.3-9.5-12.4-12.7c1.2-7.4,0.9-15-0.7-22.3c-0.4-1.7-1.8-3-3.6-3.3c-1.7-0.3-3.5,0.4-4.5,2
	c-5.9,8.8-31,8-51.3,7.3c-5.8-0.2-11.5-0.4-16.9-0.4c-23.1,0-35.9,12.7-35.9,35.9c0.4,10.1,1.7,20.1,4,29.9c-3,4.3-4.4,9.5-4,14.7
	c0,19.7,11.9,25.2,18,26.7c1.1,3.9,2.5,7.8,4.3,11.5c3.1,6.9,7.4,13.1,12.8,18.3c-0.9,7.2-2.6,14.3-5.1,21.1c0,0.1-0.1,0.1-0.1,0.2
	l-8.8-8.8c-1.4-1.4-3.5-1.7-5.2-0.9l-17.9,9c-0.4,0.2-0.7,0.4-0.9,0.7c-23.1,2.3-40.9,21.2-41.9,44.3c-1,23.1,15.1,43.5,37.9,47.9
	c3,6,9.2,9.8,16,9.9h107.8c6.7,0,12.9-3.8,16-9.9c22.8-4.3,38.9-24.7,37.9-47.9S373.9,319.9,350.8,317.7L350.8,317.7z M330.8,317.4
	l9.5,4.8l-37.8,37.8l-10.3-7.8l27.2-23.3c0.1-0.1,0.1-0.1,0.1-0.1c0.1-0.1,0.1-0.1,0.1-0.1L330.8,317.4z M321,244.6h-17.9
	c-2.5,0-4.5-2-4.5-4.5v-9h26.9c-0.1,4-0.2,7.6-0.4,11C324.2,243.6,322.7,244.6,321,244.6z M279.3,223.5c-0.9-0.9-2-1.4-3.3-1.4
	h-31.3c-0.1-7.9,2.8-15.5,8.2-21.3c9.8-9.1,27.8-7.7,43.7-6.5c5.4,0.4,10.5,0.8,15.3,0.8l0,0c2,0,4.1-0.2,6.1-0.7
	c5.1,8.2,7.7,17.9,7.3,27.6H294c-1.2,0-2.4,0.5-3.3,1.4C287.2,221.7,282.9,221.7,279.3,223.5L279.3,223.5z M245.1,242
	c-0.2-3.3-0.4-7-0.4-10.9h26.9v9c0,2.5-2,4.5-4.5,4.5h-17.9C247.4,244.6,245.9,243.6,245.1,242L245.1,242z M332.4,255.7
	c0.7-3.6,1.1-7.5,1.4-11.8c0.4-1.2,0.6-2.5,0.6-3.8v-8c0.8-0.7,1.8-1,2.8-1.1c0,0,1.7,1.4,1.7,8.7
	C338.9,248.7,335.8,253.3,332.4,255.7L332.4,255.7z M339.4,192.7c2.3,4.6-0.7,19.1-3.8,29.6c-0.4,0.1-0.8,0.1-1.2,0.2
	c0.3-11.1-2.5-22.1-8-31.7c1.4-1.1,2.7-2.3,3.8-3.7c0.6-0.7,1.1-1.5,1.6-2.3C334.9,186.9,337.5,189.6,339.4,192.7z M258.1,168.3
	c5.3,0,10.9,0.1,16.6,0.4c19.9,0.7,40.4,1.2,52.1-5.2c0.9,6.3-0.3,12.7-3.5,18.2c-2.7,3.3-6.9,4.9-11.2,4.6l0,0
	c-4.4,0-9.3-0.4-14.5-0.8c-17.7-1.4-37.8-2.9-50.5,8.9c-6.9,6.4-10.5,15.6-11.1,28.2c-0.4-0.1-0.7-0.1-1-0.2
	c-2.1-8.9-3.3-18-3.6-27.1C231.2,176.8,239.7,168.3,258.1,168.3z M231.2,239.8c0-7.3,1.6-8.7,1.6-8.7c1,0.1,2,0.4,2.9,1.1v7.9
	c0,1.3,0.2,2.5,0.6,3.8c0.3,4.3,0.8,8.2,1.4,11.8C234.2,253.3,231.2,248.7,231.2,239.8z M252.6,274.1c-2-4.2-3.5-8.5-4.6-12.9
	c-0.7-2.5-1.2-5.1-1.6-7.9c0.9,0.2,1.8,0.3,2.7,0.3H267c7.4,0,13.5-6,13.5-13.5v-6.9c1.3-1.1,2.8-1.8,4.5-2.1
	c1.7,0.3,3.2,0.9,4.5,2.1v6.9c0,7.4,6,13.5,13.5,13.5h17.9c0.9,0,1.8-0.1,2.7-0.3c-0.4,2.7-0.9,5.4-1.6,7.8
	c-1.1,4.5-2.7,8.8-4.6,12.9c-7.7,16.2-18.6,24.4-32.4,24.4C271.1,298.5,260.2,290.3,252.6,274.1z M285.1,307.4
	c6.9,0,13.7-1.7,19.6-5.2c1,6.2,2.6,12.3,4.8,18.2c0.5,1.4,1,2.6,1.5,3.8l-25.9,22.3l-25.9-22.2c0.5-1.2,0.9-2.4,1.4-3.8
	c2.2-5.9,3.8-12,4.8-18.2C271.4,305.7,278.2,307.5,285.1,307.4z M239.3,317.4l11.2,11.2c0.1,0.1,0.1,0.1,0.1,0.1
	c0.1,0.1,0.1,0.1,0.1,0.1l27.2,23.3l-10.3,7.8l-37.8-37.8L239.3,317.4z M222.2,401.7v-27c0-2.5-2-4.5-4.5-4.5s-4.5,2-4.5,4.5v25.3
	c-17.4-5.1-28.6-21.9-26.8-39.9c1.8-18,16.2-32.1,34.2-33.7l0.7-0.1l42.5,42.5c1.6,1.6,4,1.7,5.9,0.4l10.8-8.1v49.4h-49.4
	C226.2,410.7,222.2,406.7,222.2,401.7z M356.9,400.1v-25.3c0-2.5-2-4.5-4.5-4.5c-2.5,0-4.5,2-4.5,4.5v27c0,5-4,9-9,9h-49.4v-49.4
	l10.8,8.1c1.8,1.4,4.3,1.2,5.9-0.4l42.5-42.5l0.7,0.1c18,1.5,32.4,15.7,34.2,33.7C385.4,378.2,374.2,395,356.9,400.1z"/>
</svg>
