<?xml version="1.0" encoding="utf-8"?>
<!-- Generator: Adobe Illustrator 21.0.0, SVG Export Plug-In . SVG Version: 6.00 Build 0)  -->
<svg version="1.1" id="Capa_1" xmlns="http://www.w3.org/2000/svg" xmlns:xlink="http://www.w3.org/1999/xlink" x="0px" y="0px"
	 viewBox="0 0 503 503" style="enable-background:new 0 0 503 503;" xml:space="preserve">
<style type="text/css">
	.st0{fill:#0E002F;}
</style>
<path class="st0" d="M455.4,424.7h-7.5V263.3c13.8-6.4,22.6-20.3,22.6-35.5v-51.4c0-16.6-13.5-30.1-30.1-30.1H337.3
	c13.4-37.4,0.7-79.2-31.2-102.9c-31.9-23.7-75.6-23.7-107.6,0c-31.9,23.7-44.6,65.5-31.2,102.9H64.2c-16.6,0-30.1,13.5-30.1,30.1
	v51.4c0,15.2,8.8,29,22.6,35.5v161.4h-7.5c-12.5,0-22.6,10.1-22.6,22.6v15.1c0,8.3,6.7,15,15.1,15H463c8.3,0,15-6.7,15-15v-15.1
	C478,434.8,467.9,424.7,455.4,424.7z M252.3,41c38.9,0.1,71.4,29.8,74.9,68.5c-3.7,0.7-7.2,2-10.6,3.8c-7.3,4-16.1,4-23.4,0
	c-3.7-2-7.7-3.4-11.8-4c-3.2-13.5-15.3-23.1-29.2-23.1c-13.9,0-26,9.6-29.2,23.1c-4.1,0.7-8.1,2-11.8,4c-7.3,4-16.1,4-23.4,0
	c-3.3-1.8-6.9-3-10.5-3.8C180.9,70.7,213.3,41,252.3,41z M252.3,146.3c13.4,0,25.1-9,28.8-21.8c1.9,0.5,3.7,1.3,5.5,2.2
	c11.5,6.1,25.3,6.1,36.8,0c1.2-0.6,2.4-1.1,3.6-1.6c-4.5,37.8-36.6,66.4-74.7,66.4s-70.2-28.5-74.7-66.4c1.2,0.5,2.3,1,3.6,1.6
	c11.5,6.1,25.3,6.1,36.8,0c1.7-0.9,3.6-1.7,5.5-2.2C227.1,137.4,238.9,146.3,252.3,146.3z M237.2,116.2c0-8.3,6.7-15.1,15.1-15.1
	c8.3,0,15,6.7,15,15.1c0,8.3-6.7,15-15,15C244,131.2,237.2,124.5,237.2,116.2z M49.1,176.4c0-8.3,6.7-15,15.1-15h110
	c7,12.1,16.7,22.4,28.3,30.1H49.1V176.4z M49.1,227.8v-21.3h323.6c4.2,0,7.5-3.4,7.5-7.5c0-4.2-3.4-7.5-7.5-7.5h-70.6
	c11.6-7.7,21.3-18,28.3-30.1h110c8.3,0,15,6.7,15,15v15.1h-52.7c-4.2,0-7.5,3.4-7.5,7.5c0,4.2,3.4,7.5,7.5,7.5h52.7v21.3
	c0.2,11.9-8.5,22.2-20.4,23.7c-6.3,0.7-12.7-1.4-17.4-5.7c-4.7-4.3-7.4-10.4-7.4-16.7c0-4.2-3.4-7.5-7.5-7.5s-7.5,3.4-7.5,7.5
	c0,12.5-10.1,22.6-22.6,22.6s-22.6-10.1-22.6-22.6c0-4.2-3.4-7.5-7.5-7.5c-4.2,0-7.5,3.4-7.5,7.5c0,12.5-10.1,22.6-22.6,22.6
	c-12.5,0-22.6-10.1-22.6-22.6c0-4.2-3.4-7.5-7.5-7.5c-4.2,0-7.5,3.4-7.5,7.5c0,12.5-10.1,22.6-22.6,22.6
	c-12.5,0-22.6-10.1-22.6-22.6c0-4.2-3.4-7.5-7.5-7.5c-4.2,0-7.5,3.4-7.5,7.5c0,12.5-10.1,22.6-22.6,22.6
	c-12.5,0-22.6-10.1-22.6-22.6c0-4.2-3.4-7.5-7.5-7.5c-4.2,0-7.5,3.4-7.5,7.5c0,12.5-10.1,22.6-22.6,22.6
	c-12.5,0-22.6-10.1-22.6-22.6c0-4.2-3.4-7.5-7.5-7.5c-4.2,0-7.5,3.4-7.5,7.5c0,6.4-2.7,12.4-7.4,16.7c-4.7,4.3-11,6.4-17.4,5.7
	C57.6,249.9,48.9,239.7,49.1,227.8z M395.2,281.7h-90.3c-8.3,0-15,6.7-15.1,15.1v127.9H71.7V266.5c11.8,0.2,23-5.4,30.1-14.8
	c7.1,9.5,18.3,15.1,30.1,15.1c11.8,0,23-5.6,30.1-15.1c7.1,9.5,18.3,15.1,30.1,15.1c11.8,0,23-5.6,30.1-15.1
	c7.1,9.5,18.3,15.1,30.1,15.1c11.8,0,23-5.6,30.1-15.1c7.1,9.5,18.2,15.1,30.1,15.1c11.9,0,23-5.6,30.1-15.1
	c7.1,9.5,18.2,15.1,30.1,15.1c11.8,0,23-5.6,30.1-15.1c7.1,9.5,18.3,15,30.1,14.8v158.2h-22.6V296.8
	C410.3,288.5,403.5,281.8,395.2,281.7z M395.2,296.8v127.9h-90.3V296.8H395.2z M41.6,462.3v-15.1c0-4.2,3.4-7.5,7.5-7.5h406.3
	c4.2,0,7.5,3.4,7.5,7.5l0,15.1H41.6z"/>
<path class="st0" d="M244.7,281.7H109.3c-8.3,0-15,6.7-15,15.1v97.8c0,8.3,6.7,15,15,15.1h135.4c8.3,0,15-6.7,15-15.1v-97.8
	C259.8,288.5,253,281.8,244.7,281.7z M166.1,394.6l50.8-47.2c2-1.8,2.8-4.6,2.2-7.2c-0.6-2.6-2.5-4.7-5.1-5.5
	c-2.6-0.8-5.4-0.2-7.3,1.7L144,394.6h-34.7v-4.2l27.7-25.7c3-2.8,3.2-7.6,0.4-10.6c-2.8-3-7.6-3.2-10.6-0.4l-17.5,16.2v-73H188
	l-38.6,35.9c-2,1.8-2.8,4.6-2.2,7.2c0.6,2.6,2.6,4.7,5.1,5.5c2.6,0.8,5.4,0.2,7.3-1.7l50.5-46.9h34.7v4.2l-13.8,12.8
	c-3,2.8-3.2,7.6-0.4,10.6c2.8,3,7.6,3.2,10.6,0.4l3.6-3.3l0,73H166.1z"/>
<path class="st0" d="M335,372h30.1c8.3,0,15-6.7,15-15v-30.1c0-8.3-6.7-15-15-15.1H335c-8.3,0-15,6.7-15.1,15.1V357
	C320,365.3,326.7,372,335,372z M335,326.9h30.1V357l-30.1,0V326.9z"/>
<path class="st0" d="M327.5,402.1h7.5c4.2,0,7.5-3.4,7.5-7.5c0-4.2-3.4-7.5-7.5-7.5h-7.5c-4.2,0-7.5,3.4-7.5,7.5
	C320,398.8,323.4,402.1,327.5,402.1z"/>
<path class="st0" d="M207.1,93.6c2,0,3.9-0.8,5.3-2.2l7.5-7.5c2-1.9,2.7-4.7,2.1-7.3c-0.7-2.6-2.7-4.7-5.4-5.4
	c-2.6-0.7-5.4,0.1-7.3,2.1l-7.5,7.5c-2.2,2.2-2.8,5.4-1.6,8.2C201.3,91.8,204.1,93.6,207.1,93.6z"/>
<path class="st0" d="M244.7,71.1h15c4.2,0,7.5-3.4,7.5-7.5c0-4.2-3.4-7.5-7.5-7.5h-15c-4.2,0-7.5,3.4-7.5,7.5
	C237.2,67.7,240.6,71.1,244.7,71.1z"/>
<path class="st0" d="M292.1,91.4c3,2.9,7.6,2.8,10.5-0.1c2.9-2.9,2.9-7.6,0.1-10.6l-7.5-7.5c-3-2.9-7.6-2.8-10.5,0.1
	c-2.9,2.9-2.9,7.6-0.1,10.5L292.1,91.4z"/>
</svg>
