<svg height="503pt" viewBox="0 0 503 503.93024" width="503pt" xmlns="http://www.w3.org/2000/svg"><path d="m478.890625 445.175781h-8.394531v-180.0625c15.367187-7.191406 25.183594-22.628906 25.183594-39.59375v-57.328125c-.023438-18.53125-15.042969-33.550781-33.574219-33.574218h-114.992188c14.929688-41.765626.773438-88.382813-34.855469-114.804688-35.628906-26.417969-84.347656-26.417969-119.980468 0-35.628906 26.421875-49.78125 73.039062-34.855469 114.804688h-114.988281c-18.535156.023437-33.554688 15.042968-33.574219 33.574218v57.328125c0 16.964844 9.8125 32.402344 25.179687 39.59375v180.0625h-8.394531c-13.898437.015625-25.164062 11.28125-25.179687 25.179688v16.789062c.007812 9.265625 7.519531 16.777344 16.789062 16.785157h470.03125c9.265625-.007813 16.777344-7.519532 16.785156-16.785157v-16.789062c-.015624-13.898438-11.277343-25.164063-25.179687-25.179688zm-226.621094-428.066406c43.410157.0625 79.628907 33.1875 83.554688 76.421875-4.105469.835938-8.066407 2.25-11.769531 4.203125-8.128907 4.414063-17.9375 4.414063-26.066407 0-4.105469-2.226563-8.554687-3.75-13.160156-4.511719-3.574219-15.09375-17.050781-25.75-32.558594-25.75-15.511719 0-28.988281 10.65625-32.558593 25.75-4.609376.761719-9.058594 2.285156-13.164063 4.511719-8.128906 4.414063-17.9375 4.414063-26.066406 0-3.703125-1.953125-7.664063-3.367187-11.765625-4.203125 3.925781-43.234375 40.140625-76.359375 83.554687-76.421875zm0 117.507813c14.9375-.050782 28.042969-9.984376 32.125-24.355469 2.109375.613281 4.148438 1.449219 6.085938 2.488281 12.855469 6.777344 28.226562 6.777344 41.082031 0 1.390625-.695312 2.671875-1.28125 4-1.792969-4.992188 42.214844-40.78125 74.019531-83.292969 74.019531s-78.300781-31.804687-83.296875-74.019531c1.332032.511719 2.613282 1.097657 4 1.792969 12.855469 6.777344 28.226563 6.777344 41.082032 0 1.9375-1.039062 3.976562-1.875 6.085937-2.488281 4.085937 14.371093 17.1875 24.304687 32.128906 24.355469zm-16.789062-33.570313c0-9.273437 7.515625-16.789063 16.789062-16.789063 9.269531 0 16.785157 7.515626 16.785157 16.789063 0 9.269531-7.515626 16.785156-16.785157 16.785156-9.269531-.007812-16.777343-7.519531-16.789062-16.785156zm-209.835938 67.144531c.011719-9.265625 7.519531-16.777344 16.789063-16.785156h122.742187c7.796875 13.460938 18.589844 24.949219 31.539063 33.574219h-171.070313zm0 57.328125v-23.753906h360.917969c4.636719 0 8.394531-3.757813 8.394531-8.394531 0-4.632813-3.757812-8.390625-8.394531-8.390625h-78.742188c12.949219-8.625 23.742188-20.113281 31.539063-33.574219h122.746094c9.265625.007812 16.777343 7.519531 16.785156 16.785156v16.789063h-58.753906c-4.636719 0-8.394531 3.757812-8.394531 8.390625 0 4.636718 3.757812 8.394531 8.394531 8.394531h58.753906v23.753906c.265625 13.320313-9.507813 24.714844-22.710937 26.476563-7.082032.742187-14.140626-1.585938-19.386719-6.398438-5.253907-4.777344-8.253907-11.546875-8.261719-18.652344 0-4.632812-3.757812-8.390624-8.394531-8.390624s-8.394531 3.757812-8.394531 8.390624c0 13.90625-11.273438 25.183594-25.179688 25.183594s-25.179688-11.277344-25.179688-25.183594c0-4.632812-3.757812-8.390624-8.394531-8.390624-4.632812 0-8.390625 3.757812-8.390625 8.390624 0 13.90625-11.273437 25.183594-25.183594 25.183594-13.90625 0-25.179687-11.277344-25.179687-25.183594 0-4.632812-3.757813-8.390624-8.390625-8.390624-4.636719 0-8.394531 3.757812-8.394531 8.390624 0 13.90625-11.273438 25.183594-25.179688 25.183594s-25.179687-11.277344-25.179687-25.183594c0-4.632812-3.757813-8.390624-8.394532-8.390624-4.636718 0-8.394531 3.757812-8.394531 8.390624 0 13.90625-11.273437 25.183594-25.179687 25.183594s-25.179688-11.277344-25.179688-25.183594c0-4.632812-3.757812-8.390624-8.394531-8.390624s-8.394531 3.757812-8.394531 8.390624c0 13.90625-11.273438 25.183594-25.179688 25.183594s-25.179687-11.277344-25.179687-25.183594c0-4.632812-3.757813-8.390624-8.394531-8.390624-4.632813 0-8.390626 3.757812-8.390626 8.390624-.007812 7.105469-3.007812 13.875-8.265624 18.652344-5.25 4.804688-12.308594 7.132813-19.386719 6.398438-13.203125-1.761719-22.976563-13.160156-22.710938-26.476563zm386.097657 60.179688h-100.71875c-9.269532.011719-16.777344 7.519531-16.789063 16.789062v142.6875h-243.410156v-176.507812c13.203125.183593 25.691406-5.972657 33.582031-16.558594 7.917969 10.578125 20.359375 16.804687 33.574219 16.804687 13.210937 0 25.652343-6.230468 33.566406-16.8125 7.917969 10.582032 20.359375 16.8125 33.574219 16.8125s25.65625-6.230468 33.574218-16.8125c7.917969 10.582032 20.359376 16.8125 33.574219 16.8125 13.214844 0 25.65625-6.230468 33.574219-16.8125 7.914062 10.582032 20.355469 16.8125 33.570312 16.8125 13.21875 0 25.660157-6.230468 33.574219-16.8125 7.917969 10.582032 20.355469 16.8125 33.570313 16.8125 13.210937 0 25.652344-6.226562 33.570312-16.804687 7.890625 10.585937 20.378906 16.746094 33.582032 16.558594v176.507812h-25.179688v-142.6875c-.011719-9.269531-7.519531-16.777343-16.789062-16.789062zm0 16.789062v142.6875h-100.71875v-142.6875zm-394.488282 184.65625v-16.789062c.003906-4.632813 3.757813-8.386719 8.390625-8.390625h453.246094c4.632813.003906 8.386719 3.757812 8.394531 8.390625l.011719 16.789062zm0 0"/><path d="m243.875 285.699219h-151.082031c-9.265625.011719-16.777344 7.519531-16.785157 16.789062v109.113281c.007813 9.269532 7.519532 16.777344 16.785157 16.789063h151.082031c9.265625-.011719 16.777344-7.519531 16.785156-16.789063v-109.113281c-.007812-9.269531-7.519531-16.777343-16.785156-16.789062zm-87.738281 125.902343 56.648437-52.601562c2.199219-2.042969 3.140625-5.101562 2.46875-8.023438-.667968-2.925781-2.84375-5.269531-5.710937-6.152343-2.867188-.882813-5.988281-.167969-8.183594 1.871093l-69.898437 64.90625h-38.667969v-4.730468l30.894531-28.6875c3.398438-3.15625 3.59375-8.464844.4375-11.863282-3.15625-3.398437-8.46875-3.59375-11.863281-.441406l-19.46875 18.078125v-81.46875h87.738281l-43.089844 40.011719c-2.199218 2.042969-3.140625 5.101562-2.472656 8.023438.667969 2.925781 2.847656 5.269531 5.714844 6.152343 2.867187.882813 5.984375.167969 8.183594-1.871093l56.339843-52.316407h38.667969v4.730469l-15.398438 14.296875c-3.398437 3.15625-3.59375 8.46875-.4375 11.867187 3.15625 3.394532 8.464844 3.59375 11.863282.4375l3.976562-3.695312.007813 81.476562zm0 0"/><path d="m344.597656 386.421875h33.574219c9.265625-.007813 16.777344-7.519531 16.785156-16.785156v-33.574219c-.007812-9.269531-7.519531-16.777344-16.785156-16.789062h-33.574219c-9.269531.011718-16.777344 7.519531-16.789062 16.789062v33.574219c.011718 9.265625 7.519531 16.777343 16.789062 16.785156zm0-50.359375h33.574219v33.574219l-33.574219.011719zm0 0"/><path d="m336.203125 419.996094h8.394531c4.632813 0 8.390625-3.757813 8.390625-8.394532 0-4.632812-3.757812-8.394531-8.390625-8.394531h-8.394531c-4.636719 0-8.394531 3.761719-8.394531 8.394531 0 4.636719 3.757812 8.394532 8.394531 8.394532zm0 0"/><path d="m201.90625 75.863281c2.226562.003907 4.363281-.882812 5.9375-2.457031l8.390625-8.394531c2.183594-2.105469 3.058594-5.226563 2.289063-8.164063-.765626-2.933594-3.058594-5.226562-5.992188-5.992187-2.9375-.769531-6.058594.105469-8.164062 2.289062l-8.394532 8.390625c-2.398437 2.402344-3.117187 6.011719-1.816406 9.148438 1.296875 3.136718 4.355469 5.179687 7.75 5.179687zm0 0"/><path d="m243.875 50.683594h16.785156c4.636719 0 8.394532-3.757813 8.394532-8.394532 0-4.632812-3.757813-8.390624-8.394532-8.390624h-16.785156c-4.636719 0-8.394531 3.757812-8.394531 8.390624 0 4.636719 3.757812 8.394532 8.394531 8.394532zm0 0"/><path d="m296.695312 73.40625c3.292969 3.179688 8.527344 3.132812 11.765626-.101562 3.238281-3.238282 3.28125-8.472657.101562-11.769532l-8.394531-8.390625c-3.292969-3.183593-8.527344-3.136719-11.765625.101563-3.234375 3.238281-3.28125 8.472656-.101563 11.765625zm0 0"/></svg>