<?xml version="1.0" encoding="utf-8"?>
<!-- Generator: Adobe Illustrator 21.0.0, SVG Export Plug-In . SVG Version: 6.00 Build 0)  -->
<svg version="1.1" id="Capa_1" xmlns="http://www.w3.org/2000/svg" xmlns:xlink="http://www.w3.org/1999/xlink" x="0px" y="0px"
	 viewBox="0 0 511 511" style="enable-background:new 0 0 511 511;" xml:space="preserve">
<style type="text/css">
	.st0{fill:#0E002F;}
</style>
<path class="st0" d="M369.6,311.8c-0.4-0.5-1-0.9-1.5-1.3l-31-15.5c-3-1.5-6.6-0.9-8.9,1.4l-15.1,15.1c-0.1-0.1-0.1-0.3-0.2-0.4
	c-4.3-11.8-7.2-24-8.7-36.5c9.2-9,16.6-19.7,21.9-31.4c3-6.4,5.4-13,7.4-19.8c10.4-2.6,31.1-11.9,31.1-46c0.6-8.8-1.7-17.6-6.6-25
	c4.3-13.9,13.4-47.9,5.8-63.1c-5.3-8.9-12.6-16.3-21.4-21.8c2.1-12.8,1.7-25.9-1.3-38.5c-0.7-3-3.2-5.2-6.2-5.7
	c-3-0.5-6.1,0.8-7.8,3.3c-10,15.1-53.4,13.7-88.3,12.6c-10-0.3-19.8-0.6-29.1-0.6c-39.9,0-61.9,22-61.9,61.9
	c0.6,17.4,2.9,34.6,6.9,51.5c-5.1,7.4-7.6,16.3-6.9,25.3c0,33.9,20.6,43.3,31,45.9c1.9,6.8,4.4,13.4,7.3,19.8
	c5.3,11.8,12.8,22.5,22.1,31.6c-1.5,12.4-4.4,24.6-8.7,36.4c0,0.1-0.1,0.2-0.1,0.3l-15.1-15.1c-2.4-2.4-6-2.9-8.9-1.4l-31,15.5
	c-0.6,0.4-1.1,0.8-1.5,1.3c-39.7,3.9-70.5,36.5-72.3,76.4c-1.8,39.9,26,75,65.3,82.5c5.2,10.4,15.9,17,27.5,17h185.7
	c11.6,0,22.3-6.6,27.5-17c39.2-7.4,67-42.6,65.3-82.5C440.2,348.3,409.4,315.7,369.6,311.8L369.6,311.8z M335.2,311.3l16.4,8.2
	l-65,65l-17.9-13.4l46.8-40.2c0.1-0.1,0.1-0.2,0.2-0.3c0.1-0.1,0.2-0.1,0.2-0.1L335.2,311.3z M318.2,185.9h-31
	c-4.3,0-7.7-3.5-7.7-7.7v-15.5h46.3c-0.1,6.8-0.4,13.1-0.8,18.9C323.8,184.2,321.1,185.8,318.2,185.9z M246.4,149.6
	c-1.4-1.5-3.5-2.4-5.6-2.4h-53.9c-0.2-13.6,4.9-26.7,14.3-36.6c16.9-15.6,47.9-13.3,75.3-11.2c9.3,0.7,18.1,1.4,26.3,1.4h0
	c3.5,0,7.1-0.4,10.5-1.1c8.8,14.3,13.2,30.8,12.6,47.5h-54c-2.1,0-4.1,0.9-5.6,2.4C260,146.4,252.6,146.4,246.4,149.6L246.4,149.6z
	 M187.5,181.5c-0.4-5.8-0.6-12-0.8-18.9h46.3v15.5c0,4.3-3.5,7.7-7.7,7.7h-31C191.5,185.8,188.8,184.2,187.5,181.5L187.5,181.5z
	 M337.9,205c1.1-6.3,1.9-13,2.4-20.3c0.7-2.1,1-4.3,1.1-6.5v-13.6c1.4-1.1,3.1-1.7,4.9-1.9c0,0,2.8,2.4,2.8,15
	C349.1,193,343.8,200.9,337.9,205L337.9,205z M350,96.5c4,7.9-1.1,32.9-6.6,51c-0.7,0.1-1.4,0.2-2.1,0.4c0.5-19.1-4.2-38-13.7-54.5
	c2.5-1.8,4.7-4,6.6-6.4c1-1.3,1.9-2.6,2.7-4C342.2,86.5,346.6,91.1,350,96.5z M209.9,54.3c9.1,0,18.8,0.3,28.6,0.6
	c34.3,1.1,69.5,2.1,89.7-8.9c1.6,10.9-0.5,22-6.1,31.4c-4.8,5.6-12,8.5-19.3,7.9h0c-7.6,0-16.1-0.7-25.1-1.3
	c-30.5-2.3-65.1-5-87,15.3c-11.8,11-18.1,27-19.2,48.7c-0.6-0.2-1.2-0.3-1.7-0.4c-3.6-15.4-5.7-31-6.2-46.8
	C163.4,69.1,178.2,54.3,209.9,54.3z M163.4,177.6c0-12.5,2.8-14.9,2.8-14.9c1.8,0.1,3.5,0.8,5,1.9v13.6c0,2.2,0.4,4.4,1,6.5
	c0.6,7.4,1.3,14.1,2.4,20.4C168.7,200.9,163.4,192.9,163.4,177.6z M200.3,236.7c-3.4-7.2-6-14.7-7.9-22.3c-1.1-4.3-2-8.8-2.7-13.5
	c1.6,0.3,3.2,0.5,4.8,0.5h31c12.8,0,23.2-10.4,23.2-23.2v-11.9c2.2-1.9,4.9-3.1,7.7-3.6c2.9,0.4,5.5,1.7,7.7,3.6v11.9
	c0,12.8,10.4,23.2,23.2,23.2h31c1.6,0,3.2-0.2,4.7-0.5c-0.8,4.7-1.7,9.2-2.8,13.5c-1.9,7.7-4.6,15.2-8,22.4
	c-13.2,27.9-32,42-55.8,42C232.2,278.7,213.4,264.6,200.3,236.7z M256.3,294.2c11.9,0.1,23.5-3.1,33.8-9c1.8,10.7,4.5,21.2,8.3,31.4
	c0.9,2.4,1.7,4.5,2.6,6.5l-44.7,38.3l-44.7-38.3c0.8-2,1.7-4.1,2.5-6.4c3.8-10.2,6.5-20.7,8.3-31.4
	C232.7,291.2,244.4,294.2,256.3,294.2z M177.4,311.3l19.3,19.3c0.1,0.1,0.2,0.1,0.2,0.1c0.1,0.1,0.1,0.2,0.2,0.3l46.8,40.2
	l-17.9,13.4l-65-65L177.4,311.3z M148,456.7v-46.4c0-4.3-3.5-7.7-7.7-7.7c-4.3,0-7.7,3.5-7.7,7.7v43.6
	c-29.9-8.9-49.2-37.7-46.1-68.7c3.1-31,27.9-55.4,58.9-58.1l1.2-0.1l73.3,73.3c2.7,2.7,7,3,10.1,0.7l18.6-13.9v85.1h-85.1
	C154.9,472.2,148,465.2,148,456.7z M380.1,453.9v-43.6c0-4.3-3.5-7.7-7.7-7.7c-4.3,0-7.7,3.5-7.7,7.7v46.4c0,8.5-6.9,15.5-15.5,15.5
	H264V387l18.6,13.9c3.1,2.3,7.4,2,10.1-0.7l73.3-73.3l1.2,0.1c31.1,2.7,55.8,27.1,59,58.1C429.3,416.1,410,445,380.1,453.9z"/>
</svg>
