<svg height="511pt" viewBox="-51 0 511 511.99889" width="511pt" xmlns="http://www.w3.org/2000/svg"><path d="m330.273438 318.0625c-.496094-.550781-1.070313-1.03125-1.695313-1.429688l-34.136719-17.066406c-3.285156-1.632812-7.246094-.988281-9.847656 1.597656l-16.699219 16.703126c-.058593-.164063-.117187-.285157-.175781-.453126-4.691406-13.007812-7.902344-26.503906-9.574219-40.230468 10.105469-9.953125 18.289063-21.675782 24.152344-34.589844 3.28125-7.058594 6.007813-14.363281 8.148437-21.847656 11.460938-2.816406 34.3125-13.136719 34.3125-50.679688.667969-9.726562-1.898437-19.402344-7.304687-27.515625 4.730469-15.355469 14.800781-52.78125 6.40625-69.570312-5.851563-9.761719-13.921875-18.007813-23.558594-24.0625 2.296875-14.109375 1.824219-28.53125-1.398437-42.457031-.820313-3.277344-3.492188-5.757813-6.820313-6.335938-3.328125-.574219-6.683593.863281-8.554687 3.671875-11.074219 16.605469-58.917969 15.132813-97.382813 13.945313-11-.34375-21.859375-.675782-32.050781-.675782-44.023438 0-68.269531 24.246094-68.269531 68.265625.660156 19.152344 3.210937 38.191407 7.621093 56.835938-5.648437 8.15625-8.339843 18.003906-7.621093 27.898437 0 37.417969 22.710937 47.796875 34.210937 50.652344 2.113282 7.480469 4.8125 14.785156 8.074219 21.84375 5.867187 13.019531 14.121094 24.824219 24.332031 34.808594-1.660156 13.691406-4.882812 27.152344-9.597656 40.113281-.050781.140625-.101562.242187-.152344.382813l-16.699218-16.703126c-2.597657-2.59375-6.5625-3.234374-9.851563-1.597656l-34.132813 17.066406c-.625.398438-1.191406.875-1.6875 1.425782-43.824218 4.351562-77.789062 40.238281-79.734374 84.230468-1.941407 43.992188 28.726562 82.734376 71.992187 90.9375 5.757813 11.46875 17.480469 18.730469 30.316406 18.773438h204.796875c12.835938-.042969 24.558594-7.304688 30.316406-18.773438 43.265626-8.199218 73.9375-46.9375 71.996094-90.929687s-35.910156-79.878906-79.730468-84.230469zm-37.964844-.480469 18.046875 9.019531-71.730469 71.734376-19.703125-14.777344 51.660156-44.277344c.09375-.085938.140625-.199219.234375-.285156.074219-.070313.171875-.089844.242188-.160156zm-18.75-138.382812h-34.132813c-4.710937-.007813-8.527343-3.824219-8.53125-8.535157v-17.066406h51.066407c-.117188 7.515625-.394532 14.421875-.839844 20.828125-1.410156 2.898438-4.339844 4.75-7.5625 4.773438zm-79.1875-40.007813c-1.597656-1.695312-3.820313-2.65625-6.144532-2.660156h-59.464843c-.214844-14.988281 5.421875-29.46875 15.71875-40.363281 18.617187-17.25 52.851562-14.652344 83.039062-12.351563 10.277344.777344 19.988281 1.515625 28.972657 1.515625h.003906c3.902344-.003906 7.792968-.417969 11.605468-1.238281 9.6875 15.730469 14.507813 33.976562 13.855469 52.4375h-59.597656c-2.328125.003906-4.546875.964844-6.144531 2.660156-6.851563-3.546875-15-3.546875-21.851563 0zm-64.917969 35.214844c-.433594-6.378906-.707031-13.277344-.828125-20.808594h51.066406v17.066406c-.003906 4.710938-3.820312 8.527344-8.53125 8.535157h-34.132812c-3.234375-.023438-6.171875-1.882813-7.578125-4.792969zm165.851563 25.902344c1.183593-6.933594 2.078124-14.332032 2.695312-22.429688.734375-2.335937 1.125-4.765625 1.160156-7.214844v-15.027343c1.566406-1.207031 3.449219-1.929688 5.421875-2.082031.027344.019531 3.109375 2.660156 3.109375 16.515624 0 16.964844-5.851562 25.730469-12.390625 30.238282zm13.289062-119.691406c4.363281 8.726562-1.210938 36.328124-7.242188 56.203124-.78125.109376-1.554687.257813-2.320312.445313.605469-21.058594-4.609375-41.871094-15.070312-60.15625 2.730468-2.011719 5.175781-4.378906 7.277343-7.039063 1.097657-1.410156 2.101563-2.886718 3.003907-4.429687 5.769531 3.941406 10.65625 9.042969 14.351562 14.976563zm-154.5-46.484376c10.023438 0 20.703125.332032 31.527344.664063 37.796875 1.179687 76.628906 2.367187 98.917968-9.867187 1.804688 11.980468-.582031 24.21875-6.753906 34.644531-5.277344 6.164062-13.207031 9.402343-21.289062 8.691406h-.003906c-8.332032 0-17.734376-.71875-27.683594-1.472656-33.683594-2.566407-71.84375-5.464844-95.933594 16.855469-13.046875 12.097656-19.976562 29.746093-21.195312 53.660156-.644532-.171875-1.28125-.28125-1.910157-.394532-3.9375-16.933593-6.242187-34.207031-6.875-51.582031 0-34.929687 16.269531-51.199219 51.199219-51.199219zm-51.199219 135.933594c0-13.832031 3.070313-16.484375 3.046875-16.484375 1.992188.128907 3.898438.847657 5.484375 2.058594v15.023437c.035157 2.429688.421875 4.839844 1.144531 7.15625.609376 8.136719 1.488282 15.539063 2.652344 22.445313-6.515625-4.511719-12.328125-13.28125-12.328125-30.199219zm40.644531 65.207032c-3.710937-7.910157-6.636718-16.164063-8.738281-24.644532-1.195312-4.691406-2.183593-9.652344-3.019531-14.914062 1.726562.363281 3.484375.546875 5.246094.550781h34.132812c14.132813-.015625 25.582032-11.46875 25.597656-25.601563v-13.132812c2.429688-2.074219 5.382813-3.433594 8.535157-3.933594 3.152343.496094 6.105469 1.855469 8.53125 3.925782v13.140624c.015625 14.132813 11.46875 25.585938 25.601562 25.601563h34.132813c1.742187 0 3.480468-.179687 5.1875-.53125-.84375 5.234375-1.839844 10.1875-3.046875 14.894531-2.128907 8.484375-5.085938 16.742188-8.828125 24.652344-14.546875 30.734375-35.265625 46.316406-61.578125 46.316406-26.523438 0-47.296875-15.574218-61.753907-46.324218zm61.753907 63.390624c13.09375.058594 25.964843-3.367187 37.300781-9.921874 1.945312 11.800781 5.003906 23.394531 9.132812 34.625.957032 2.617187 1.890626 4.976562 2.828126 7.167968l-49.261719 42.226563-49.261719-42.226563c.933594-2.179687 1.851562-4.515625 2.800781-7.082031 4.140625-11.21875 7.195313-22.808594 9.128907-34.613281 11.363281 6.5 24.242187 9.890625 37.332031 9.824218zm-87.015625 18.917969 21.246094 21.25c.070312.070313.171874.089844.242187.160157.09375.085937.140625.203124.238281.285156l51.65625 44.277344-19.699218 14.78125-71.730469-71.734376zm-32.453125 160.285157v-51.203126c0-4.710937-3.820313-8.53125-8.53125-8.53125-4.714844 0-8.535157 3.820313-8.535157 8.53125v48.128907c-32.9375-9.792969-54.261718-41.617188-50.800781-75.808594 3.460938-34.1875 30.734375-61.089844 64.96875-64.082031l1.359375-.109375 80.839844 80.839843c3.003906 3.003907 7.757812 3.34375 11.152344.792969l20.480468-15.359375v93.867188h-93.863281c-9.421875-.011719-17.058593-7.644532-17.070312-17.066406zm256-3.074219v-48.128907c0-4.710937-3.820313-8.53125-8.53125-8.53125-4.714844 0-8.535157 3.820313-8.535157 8.53125v51.203126c-.007812 9.421874-7.644531 17.054687-17.066406 17.066406h-93.867187v-93.867188l20.480469 15.359375c3.398437 2.550781 8.152343 2.210938 11.15625-.792969l80.835937-80.839843 1.289063.105469c34.261718 2.945312 61.582031 29.839843 65.066406 64.050781 3.480468 34.207031-17.863282 66.058593-50.828125 75.84375zm0 0"/></svg>