<?xml version="1.0" encoding="utf-8"?>
<!-- Generator: Adobe Illustrator 21.0.0, SVG Export Plug-In . SVG Version: 6.00 Build 0)  -->
<svg version="1.1" id="Capa_1" xmlns="http://www.w3.org/2000/svg" xmlns:xlink="http://www.w3.org/1999/xlink" x="0px" y="0px"
	 viewBox="0 0 570 570" style="enable-background:new 0 0 570 570;" xml:space="preserve">
<style type="text/css">
	.st0{fill:#0E002F;}
</style>
<g>
	<path class="st0" d="M169.7,337.4c4.6-2.7,6.2-8.6,3.5-13.2s-8.6-6.2-13.2-3.5c-4.6,2.7-6.2,8.6-3.5,13.2S165,340.1,169.7,337.4z"
		/>
	<path class="st0" d="M130,404.3l48.8,84.5c10.5,18.2,34.2,25,52.9,14.2c18.6-10.8,24.9-34.3,14.2-52.9l-29.1-50.3l25.2-14.5
		c4.6-2.7,6.2-8.6,3.5-13.2l-12.6-21.9c1.5-0.2,11.4-2.2,185.6-36.4c21.5-1.2,34.5-24.7,23.6-43.5l-32.3-55.7l20.5-31.2
		c2.1-3.1,2.2-7,0.4-10.1l-19.4-33.6c-1.8-3.2-5.4-5-8.9-4.8l-37.3,2.2l-35.7-62.2c-5.1-8.9-14.4-14.4-24.8-14.5c-0.1,0-0.2,0-0.4,0
		c-10,0-19.1,5-24.4,13.4L153.2,235.1L71,282.6c-32.4,18.7-43.6,60.2-24.8,92.6C63.2,405,99.3,416.6,130,404.3z M229.2,459.8
		c5.4,9.3,2.2,21.1-7.1,26.5s-21.1,2.1-26.5-7.1l-48.4-83.9l33.6-19.4C236.7,473,228.2,458.2,229.2,459.8z M207.2,383l-9.7-16.7
		l16.7-9.7l9.7,16.7L207.2,383z M397.5,154.4l13.4,23.2l-12,18.1l-23.1-40L397.5,154.4z M296,84.5c2.6-4.3,6.7-4.6,8.4-4.6
		s5.7,0.5,8.3,4.9L425.4,280c3.7,6.4-0.7,14.3-8.2,14.5c-1.3,0-2,0.2-5.3,0.9L292.7,88.9C295.1,85.6,295.4,85.3,296,84.5z
		 M279.7,105.2l112,194l-169.1,33.1l-51.4-89.1L279.7,105.2z M62.9,365.6c-4.3-7.3-6.5-15.8-6.5-24.2c0-17.2,9.3-33.4,24.2-42
		l75.5-43.6l48.4,83.9L129,383.3C105.9,396.6,76.2,388.7,62.9,365.6z"/>
	<path class="st0" d="M139.6,343.6c-2.7-4.6-8.6-6.2-13.2-3.5l-16.7,9.7c-4.6,2.7-10.5,1.1-13.2-3.5s-8.6-6.2-13.2-3.5
		s-6.2,8.6-3.5,13.2c7.9,13.8,25.8,18.7,39.7,10.6l16.7-9.7C140.7,354.1,142.3,348.3,139.6,343.6z"/>
	<path class="st0" d="M518.6,81.2l-54,30.1c-4.6,2.6-6.4,8.6-3.8,13.2c2.6,4.6,8.6,6.4,13.2,3.8l54-30.1c4.6-2.6,6.4-8.6,3.8-13.2
		C529.2,80.3,523.3,78.6,518.6,81.2z"/>
	<path class="st0" d="M513,181.5l-37.4-10c-5.1-1.3-10.5,1.7-11.9,6.8c-1.3,5.1,1.7,10.5,6.8,11.9l37.4,10
		c5.3,1.3,10.5-1.7,11.9-6.8C521.2,188.2,518.1,183,513,181.5z"/>
	<path class="st0" d="M418.9,46l-10,37.4c-1.3,5.1,1.7,10.5,6.8,11.9c5.1,1.3,10.5-1.7,11.9-6.8l10-37.4c1.3-5.1-1.7-10.5-6.8-11.9
		C425.7,37.8,420.3,40.9,418.9,46z"/>
</g>
</svg>
