<?xml version="1.0" encoding="utf-8"?>
<!-- Generator: Adobe Illustrator 21.0.0, SVG Export Plug-In . SVG Version: 6.00 Build 0)  -->
<svg version="1.1" id="Capa_1" xmlns="http://www.w3.org/2000/svg" xmlns:xlink="http://www.w3.org/1999/xlink" x="0px" y="0px"
	 viewBox="0 0 512 512" style="enable-background:new 0 0 512 512;" xml:space="preserve">
<style type="text/css">
	.st0{fill:#BF7623;}
	.st1{fill:#A6FFB6;}
	.st2{fill:#EDEDED;}
	.st3{fill:#FF9D2F;}
	.st4{fill:#8F591A;}
	.st5{fill:#293B44;}
</style>
<path class="st0" d="M416.1,154.7H122.4c-30.3,0-54.9,24.6-54.9,54.9v222c0,30.3,24.6,54.9,54.9,54.9h293.6
	c30.3,0,54.9-24.6,54.9-54.9v-222C470.9,179.3,446.4,154.7,416.1,154.7z"/>
<path class="st1" d="M319.4,30.5L100.9,249c-6.6,6.6-6.6,17.2,0,23.7L220,391.8c6.6,6.6,17.2,6.6,23.7,0l218.5-218.5
	c6.6-6.6,6.6-17.2,0-23.7L343.1,30.5C336.5,24,325.9,24,319.4,30.5z"/>
<path class="st2" d="M315,67.3L137.7,244.6c9,9,9,23.5,0,32.4l78,78c9-9,23.5-9,32.4,0l177.3-177.3c-9-9-9-23.5,0-32.4l-78-78
	C338.5,76.3,324,76.3,315,67.3z"/>
<g>
	<path class="st1" d="M247.3,177c-18.9,18.9-18.9,49.5,0,68.4c18.9,18.9,49.5,18.9,68.4,0s18.9-49.5,0-68.4
		C296.9,158.1,266.2,158.1,247.3,177z"/>
	<path class="st1" d="M338.4,130.6c-6.6,6.6-6.6,17.2,0,23.8c6.6,6.6,17.2,6.6,23.8,0c6.6-6.6,6.6-17.2,0-23.8
		C355.6,124,344.9,124,338.4,130.6z"/>
	<path class="st1" d="M200.9,268c-6.6,6.6-6.6,17.2,0,23.8c6.6,6.6,17.2,6.6,23.8,0c6.6-6.6,6.6-17.2,0-23.8
		C218.2,261.4,207.5,261.4,200.9,268z"/>
</g>
<path class="st3" d="M389.6,154.7H95.9c-30.3,0-54.9,24.6-54.9,54.9v222c0,30.3,24.6,54.9,54.9,54.9h293.6
	c30.3,0,54.9-24.6,54.9-54.9v-222C444.4,179.3,419.9,154.7,389.6,154.7z"/>
<g>
	<path class="st0" d="M403.8,458h-10.5c-1.9,0-3.5-1.6-3.5-3.5s1.6-3.5,3.5-3.5h7v-7c0-1.9,1.6-3.5,3.5-3.5c1.9,0,3.5,1.6,3.5,3.5
		v10.5C407.3,456.4,405.8,458,403.8,458z"/>
	<path class="st0" d="M373,458h-20.3c-1.9,0-3.5-1.6-3.5-3.5s1.6-3.5,3.5-3.5H373c1.9,0,3.5,1.6,3.5,3.5S374.9,458,373,458z
		 M332.3,458H312c-1.9,0-3.5-1.6-3.5-3.5s1.6-3.5,3.5-3.5h20.3c1.9,0,3.5,1.6,3.5,3.5S334.3,458,332.3,458z M291.7,458h-20.3
		c-1.9,0-3.5-1.6-3.5-3.5s1.6-3.5,3.5-3.5h20.3c1.9,0,3.5,1.6,3.5,3.5S293.6,458,291.7,458z M251.1,458h-20.3
		c-1.9,0-3.5-1.6-3.5-3.5s1.6-3.5,3.5-3.5h20.3c1.9,0,3.5,1.6,3.5,3.5S253,458,251.1,458z M210.4,458h-20.3c-1.9,0-3.5-1.6-3.5-3.5
		s1.6-3.5,3.5-3.5h20.3c1.9,0,3.5,1.6,3.5,3.5S212.4,458,210.4,458z M169.8,458h-20.3c-1.9,0-3.5-1.6-3.5-3.5s1.6-3.5,3.5-3.5h20.3
		c1.9,0,3.5,1.6,3.5,3.5S171.7,458,169.8,458z M129.2,458h-20.3c-1.9,0-3.5-1.6-3.5-3.5s1.6-3.5,3.5-3.5h20.3c1.9,0,3.5,1.6,3.5,3.5
		S131.1,458,129.2,458z"/>
	<path class="st0" d="M88.5,458H78c-1.9,0-3.5-1.6-3.5-3.5V444c0-1.9,1.6-3.5,3.5-3.5s3.5,1.6,3.5,3.5v7h7c1.9,0,3.5,1.6,3.5,3.5
		S90.5,458,88.5,458z"/>
	<path class="st0" d="M78,425.6c-1.9,0-3.5-1.6-3.5-3.5v-21.9c0-1.9,1.6-3.5,3.5-3.5s3.5,1.6,3.5,3.5v21.9
		C81.5,424.1,80,425.6,78,425.6z M78,381.9c-1.9,0-3.5-1.6-3.5-3.5v-21.9c0-1.9,1.6-3.5,3.5-3.5s3.5,1.6,3.5,3.5v21.9
		C81.5,380.3,80,381.9,78,381.9z M78,338.2c-1.9,0-3.5-1.6-3.5-3.5v-21.9c0-1.9,1.6-3.5,3.5-3.5s3.5,1.6,3.5,3.5v21.9
		C81.5,336.6,80,338.2,78,338.2z M78,294.5c-1.9,0-3.5-1.6-3.5-3.5v-21.9c0-1.9,1.6-3.5,3.5-3.5s3.5,1.6,3.5,3.5V291
		C81.5,292.9,80,294.5,78,294.5z M78,250.7c-1.9,0-3.5-1.6-3.5-3.5v-21.9c0-1.9,1.6-3.5,3.5-3.5s3.5,1.6,3.5,3.5v21.9
		C81.5,249.2,80,250.7,78,250.7z"/>
	<path class="st0" d="M78,207c-1.9,0-3.5-1.6-3.5-3.5V193c0-1.9,1.6-3.5,3.5-3.5h10.5c1.9,0,3.5,1.6,3.5,3.5s-1.6,3.5-3.5,3.5h-7v7
		C81.5,205.5,80,207,78,207z"/>
	<path class="st0" d="M373,196.5h-20.3c-1.9,0-3.5-1.6-3.5-3.5s1.6-3.5,3.5-3.5H373c1.9,0,3.5,1.6,3.5,3.5S374.9,196.5,373,196.5z
		 M332.3,196.5H312c-1.9,0-3.5-1.6-3.5-3.5s1.6-3.5,3.5-3.5h20.3c1.9,0,3.5,1.6,3.5,3.5S334.3,196.5,332.3,196.5z M291.7,196.5
		h-20.3c-1.9,0-3.5-1.6-3.5-3.5s1.6-3.5,3.5-3.5h20.3c1.9,0,3.5,1.6,3.5,3.5S293.6,196.5,291.7,196.5z M251.1,196.5h-20.3
		c-1.9,0-3.5-1.6-3.5-3.5s1.6-3.5,3.5-3.5h20.3c1.9,0,3.5,1.6,3.5,3.5S253,196.5,251.1,196.5z M210.4,196.5h-20.3
		c-1.9,0-3.5-1.6-3.5-3.5s1.6-3.5,3.5-3.5h20.3c1.9,0,3.5,1.6,3.5,3.5S212.4,196.5,210.4,196.5z M169.8,196.5h-20.3
		c-1.9,0-3.5-1.6-3.5-3.5s1.6-3.5,3.5-3.5h20.3c1.9,0,3.5,1.6,3.5,3.5S171.7,196.5,169.8,196.5z M129.2,196.5h-20.3
		c-1.9,0-3.5-1.6-3.5-3.5s1.6-3.5,3.5-3.5h20.3c1.9,0,3.5,1.6,3.5,3.5S131.1,196.5,129.2,196.5z"/>
	<path class="st0" d="M403.8,207c-1.9,0-3.5-1.6-3.5-3.5v-7h-7c-1.9,0-3.5-1.6-3.5-3.5s1.6-3.5,3.5-3.5h10.5c1.9,0,3.5,1.6,3.5,3.5
		v10.5C407.3,205.5,405.8,207,403.8,207z"/>
	<path class="st0" d="M403.8,425.6c-1.9,0-3.5-1.6-3.5-3.5v-21.9c0-1.9,1.6-3.5,3.5-3.5c1.9,0,3.5,1.6,3.5,3.5v21.9
		C407.3,424.1,405.8,425.6,403.8,425.6z M403.8,381.9c-1.9,0-3.5-1.6-3.5-3.5v-21.9c0-1.9,1.6-3.5,3.5-3.5c1.9,0,3.5,1.6,3.5,3.5
		v21.9C407.3,380.3,405.8,381.9,403.8,381.9z M403.8,338.2c-1.9,0-3.5-1.6-3.5-3.5v-21.9c0-1.9,1.6-3.5,3.5-3.5
		c1.9,0,3.5,1.6,3.5,3.5v21.9C407.3,336.6,405.8,338.2,403.8,338.2z M403.8,294.5c-1.9,0-3.5-1.6-3.5-3.5v-21.9
		c0-1.9,1.6-3.5,3.5-3.5c1.9,0,3.5,1.6,3.5,3.5V291C407.3,292.9,405.8,294.5,403.8,294.5z M403.8,250.7c-1.9,0-3.5-1.6-3.5-3.5
		v-21.9c0-1.9,1.6-3.5,3.5-3.5c1.9,0,3.5,1.6,3.5,3.5v21.9C407.3,249.2,405.8,250.7,403.8,250.7z"/>
	<path class="st0" d="M341.7,279c-23,0-41.6,18.6-41.6,41.6c0,23,18.6,41.6,41.6,41.6h102.8V279H341.7z"/>
</g>
<path class="st4" d="M444.1,279h26.8v83.1h-26.8V279z"/>
<path class="st5" d="M339.3,301c-10.8,0-19.6,8.8-19.6,19.6s8.8,19.6,19.6,19.6s19.6-8.8,19.6-19.6S350.1,301,339.3,301z"/>
</svg>
